<mxfile host="app.diagrams.net" modified="2023-10-16T09:29:34.406Z" agent="Mozilla/5.0 (Windows NT 10.0; Win64; x64) AppleWebKit/537.36 (KHTML, like Gecko) Chrome/118.0.0.0 Safari/537.36" etag="1Ac_mj5GduXK3rpZpDVh" version="22.0.4" type="github">
  <diagram name="PÃ¡gina-1" id="TNowmfKKWmo3DwGsg5BM">
    <mxGraphModel dx="970" dy="954" grid="1" gridSize="10" guides="1" tooltips="1" connect="1" arrows="1" fold="1" page="1" pageScale="1" pageWidth="827" pageHeight="1169" math="0" shadow="0">
      <root>
        <mxCell id="0" />
        <mxCell id="1" parent="0" />
        <mxCell id="gfb3JDIkSXEUwN9Qg7nV-9" value="" style="ellipse;whiteSpace=wrap;html=1;" vertex="1" parent="1">
          <mxGeometry x="50" y="200" width="420" height="510" as="geometry" />
        </mxCell>
        <mxCell id="HoJLoEbT6FcVQNfBDpqh-1" value="" style="image;aspect=fixed;perimeter=ellipsePerimeter;html=1;align=center;shadow=0;dashed=0;spacingTop=3;image=img/lib/active_directory/windows_server.svg;" parent="1" vertex="1">
          <mxGeometry x="254.5" y="219.99999999999997" width="91" height="110.98" as="geometry" />
        </mxCell>
        <mxCell id="HoJLoEbT6FcVQNfBDpqh-2" value="" style="image;html=1;image=img/lib/clip_art/networking/Firewall-page1_128x128.png" parent="1" vertex="1">
          <mxGeometry x="590" y="245.49" width="80" height="80" as="geometry" />
        </mxCell>
        <mxCell id="HoJLoEbT6FcVQNfBDpqh-3" value="" style="fontColor=#0066CC;verticalAlign=top;verticalLabelPosition=bottom;labelPosition=center;align=center;html=1;outlineConnect=0;fillColor=#CCCCCC;strokeColor=#6881B3;gradientColor=none;gradientDirection=north;strokeWidth=2;shape=mxgraph.networks.pc;" parent="1" vertex="1">
          <mxGeometry x="250" y="570" width="100" height="90" as="geometry" />
        </mxCell>
        <mxCell id="gfb3JDIkSXEUwN9Qg7nV-1" value="Windows Server 2019" style="text;html=1;align=center;verticalAlign=middle;resizable=0;points=[];autosize=1;strokeColor=none;fillColor=none;" vertex="1" parent="1">
          <mxGeometry x="130" y="240" width="140" height="30" as="geometry" />
        </mxCell>
        <mxCell id="gfb3JDIkSXEUwN9Qg7nV-2" value="Windows 10" style="text;html=1;align=center;verticalAlign=middle;resizable=0;points=[];autosize=1;strokeColor=none;fillColor=none;" vertex="1" parent="1">
          <mxGeometry x="160" y="585" width="90" height="30" as="geometry" />
        </mxCell>
        <mxCell id="gfb3JDIkSXEUwN9Qg7nV-3" value="Pfsense" style="text;html=1;align=center;verticalAlign=middle;resizable=0;points=[];autosize=1;strokeColor=none;fillColor=none;" vertex="1" parent="1">
          <mxGeometry x="595" y="215.49" width="70" height="30" as="geometry" />
        </mxCell>
        <mxCell id="gfb3JDIkSXEUwN9Qg7nV-4" value="" style="image;aspect=fixed;perimeter=ellipsePerimeter;html=1;align=center;shadow=0;dashed=0;spacingTop=3;image=img/lib/active_directory/internet_cloud.svg;" vertex="1" parent="1">
          <mxGeometry x="410" y="40" width="120" height="75.6" as="geometry" />
        </mxCell>
        <mxCell id="gfb3JDIkSXEUwN9Qg7nV-5" value="Internet" style="text;html=1;align=center;verticalAlign=middle;resizable=0;points=[];autosize=1;strokeColor=none;fillColor=none;" vertex="1" parent="1">
          <mxGeometry x="430" y="8" width="60" height="30" as="geometry" />
        </mxCell>
        <mxCell id="gfb3JDIkSXEUwN9Qg7nV-6" value="" style="endArrow=none;html=1;rounded=0;entryX=0;entryY=0.5;entryDx=0;entryDy=0;" edge="1" parent="1" target="HoJLoEbT6FcVQNfBDpqh-2">
          <mxGeometry width="50" height="50" relative="1" as="geometry">
            <mxPoint x="350" y="285" as="sourcePoint" />
            <mxPoint x="440" y="220" as="targetPoint" />
          </mxGeometry>
        </mxCell>
        <mxCell id="gfb3JDIkSXEUwN9Qg7nV-7" value="" style="endArrow=none;html=1;rounded=0;" edge="1" parent="1">
          <mxGeometry width="50" height="50" relative="1" as="geometry">
            <mxPoint x="290" y="560" as="sourcePoint" />
            <mxPoint x="290" y="340" as="targetPoint" />
          </mxGeometry>
        </mxCell>
        <mxCell id="gfb3JDIkSXEUwN9Qg7nV-8" value="" style="endArrow=none;html=1;rounded=0;entryX=0.917;entryY=0.926;entryDx=0;entryDy=0;entryPerimeter=0;" edge="1" parent="1" source="gfb3JDIkSXEUwN9Qg7nV-3" target="gfb3JDIkSXEUwN9Qg7nV-4">
          <mxGeometry width="50" height="50" relative="1" as="geometry">
            <mxPoint x="390" y="270" as="sourcePoint" />
            <mxPoint x="440" y="220" as="targetPoint" />
          </mxGeometry>
        </mxCell>
        <mxCell id="gfb3JDIkSXEUwN9Qg7nV-10" value="&lt;font style=&quot;font-size: 15px;&quot;&gt;GlobeX Network&lt;/font&gt;" style="text;html=1;align=center;verticalAlign=middle;resizable=0;points=[];autosize=1;strokeColor=none;fillColor=none;" vertex="1" parent="1">
          <mxGeometry x="460" y="450" width="130" height="30" as="geometry" />
        </mxCell>
      </root>
    </mxGraphModel>
  </diagram>
</mxfile>
